# xmcd
#
# Track frame offsets: 
#        150
#        4570
#        24422
#        43397
#        60702
#        79215
#        95425
#        113930
#        130995
#        150657
#        164512
#
# Disc length: 2422 seconds
#
# Revision: 2
# Processed by: cddbd v1.5.2PL0 Copyright (c) Steve Scherf et al.
# Submitted via: ExactAudioCopy v1.0b3
#
DISCID=8a09740b
DTITLE=Γιάννης Κότσιρας - Φύλακας Άγγελος
DYEAR=1999
DGENRE=Pop
TTITLE0=
TTITLE1=Η Πρώτη Μας Φορά
TTITLE2=Φτάνει Που Κλαίμε
TTITLE3=Να 'τανε Χτες
TTITLE4=Να 'φευγα...
TTITLE5=Άντρας Που Δεν Έκλαψε
TTITLE6=Πατέρα, Μεγάλωσα
TTITLE7=Πώς Μπορώ
TTITLE8=Τίποτα
TTITLE9=Πάει...
TTITLE10=Φύλακας Άγγελος
EXTD=
EXTT0=
EXTT1=
EXTT2=
EXTT3=
EXTT4=
EXTT5=
EXTT6=
EXTT7=
EXTT8=
EXTT9=
EXTT10=
PLAYORDER=
